PathFileType	4	(X/Y/Z)	Kaydara	
DataRate	CameraRate	NumFrames	NumMarkers	Units	OrigDataRate	OrigDataStartFrame	OrigNumFrames	
60.00	60.00	4	74	mm	60.00	583	250	
Frame#	Time	N_lasi			N_rasi			N_rpsi			N_lpsi			N_fneck			N_bneck			N_fhead			N_rhead			N_lhead			N_rshld			N_relbtop			N_relbext			N_relblow			N_rwrext			N_rwrtop			N_rwrlow			N_lshld			N_lelbext			N_lelblow			N_lelbtop			N_lwrext			N_lwrtop			N_lwrlow			N_rtopleg			N_ltopleg			N_rkneefr			N_rkneebk			N_rkneeis			N_lkneefr			N_lknssbk			N_lkneeis			N_rankfr			N_rankis			N_rankbk			N_lankfr			N_lankbk			N_lankis			D_lasi			D_rasi			D_rpsi			D_lpsi			D_fneck			D_bneck			D_fhead			D_rhead			D_lhead			D_rshld			D_relbtop			D_relbext			D_relblow			D_rwrext			D_rwrtop			D_rwrlow			D_lshld			D_lelbext			D_lelblow			D_lelbtop			D_lwrext			D_lwrtop			D_lwrlow			D_rtopleg			D_ltopleg			D_rkneefr			D_rkneebk			D_rkneeis			D_lkneefr			D_lknssbk			D_lkneeis			D_rankfr			D_rankis			D_rankbk			D_lankfr			D_lankbk			D_lankis			
		X1	Y1	Z1	X2	Y2	Z2	X3	Y3	Z3	X4	Y4	Z4	X5	Y5	Z5	X6	Y6	Z6	X7	Y7	Z7	X8	Y8	Z8	X9	Y9	Z9	X10	Y10	Z10	X11	Y11	Z11	X12	Y12	Z12	X13	Y13	Z13	X14	Y14	Z14	X15	Y15	Z15	X16	Y16	Z16	X17	Y17	Z17	X18	Y18	Z18	X19	Y19	Z19	X20	Y20	Z20	X21	Y21	Z21	X22	Y22	Z22	X23	Y23	Z23	X24	Y24	Z24	X25	Y25	Z25	X26	Y26	Z26	X27	Y27	Z27	X28	Y28	Z28	X29	Y29	Z29	X30	Y30	Z30	X31	Y31	Z31	X32	Y32	Z32	X33	Y33	Z33	X34	Y34	Z34	X35	Y35	Z35	X36	Y36	Z36	X37	Y37	Z37	X38	Y38	Z38	X39	Y39	Z39	X40	Y40	Z40	X41	Y41	Z41	X42	Y42	Z42	X43	Y43	Z43	X44	Y44	Z44	X45	Y45	Z45	X46	Y46	Z46	X47	Y47	Z47	X48	Y48	Z48	X49	Y49	Z49	X50	Y50	Z50	X51	Y51	Z51	X52	Y52	Z52	X53	Y53	Z53	X54	Y54	Z54	X55	Y55	Z55	X56	Y56	Z56	X57	Y57	Z57	X58	Y58	Z58	X59	Y59	Z59	X60	Y60	Z60	X61	Y61	Z61	X62	Y62	Z62	X63	Y63	Z63	X64	Y64	Z64	X65	Y65	Z65	X66	Y66	Z66	X67	Y67	Z67	X68	Y68	Z68	X69	Y69	Z69	X70	Y70	Z70	X71	Y71	Z71	X72	Y72	Z72	X73	Y73	Z73	X74	Y74	Z74	

32	9.700	-487.17159	1125.23857	-400.89207	-486.88873	1158.78754	-653.14140	-205.25681	1199.95956	-690.98831	-208.57092	1183.90152	-353.17566	-203.02555	1555.20569	-540.27744	-305.82304	1656.08917	-510.07450	-531.54934	1713.21381	-404.97185	-385.18848	1759.70978	-540.07660	-362.29069	1735.93002	-385.73574	-337.58881	1515.10239	-757.71027	-249.80597	1205.00458	-848.41072	-252.26788	1177.11151	-805.92957	-337.82776	1206.40358	-839.40384	-316.19995	903.42354	-886.86180	-363.49865	904.93179	-878.36746	-372.50938	905.02113	-833.14980	-262.07909	1498.49915	-262.50845	-306.95824	1146.79909	-297.00802	-357.55699	1171.00616	-215.92478	-273.17965	1149.61533	-220.16539	-430.67616	882.77344	-248.14528	-477.16572	896.04996	-243.88071	-479.24080	909.80164	-294.74232	-395.67673	1004.92210	-776.78741	-260.23224	1001.99486	-307.11437	-550.86227	557.60223	-755.80299	-406.50600	593.85166	-762.96272	-479.61906	555.17952	-642.95715	-422.19494	518.52318	-518.04226	-296.68652	530.46257	-474.27124	-318.56720	538.44135	-616.03714	-263.09851	243.32577	-802.67525	-274.03090	237.68288	-723.40126	-195.89169	269.18707	-736.99020	-361.00426	170.49564	-588.45776	-279.91879	166.90966	-573.48843	-320.82336	185.34050	-651.17867	128.71185	1046.49498	810.85083	332.55322	1065.08186	1013.93745	133.66172	1151.91711	1103.55225	-2.47299	1126.54808	964.46854	209.29535	1542.85004	896.63177	126.98704	1611.48026	988.41255	254.44332	1721.26633	799.74060	232.24623	1747.96844	980.95970	104.06893	1734.37897	893.42636	310.56242	1495.38208	1099.68849	285.81347	1174.83131	1214.40331	271.64351	1156.61415	1143.90076	367.35714	1186.02654	1184.86313	370.04013	935.85602	1245.27527	411.72409	933.60756	1204.83627	370.88596	932.73338	1168.35091	-30.54645	1492.51556	835.06592	22.87120	1168.07236	793.40378	-38.31916	1209.42749	727.90230	-57.80447	1152.05269	782.93755	65.19468	1002.96104	613.71655	92.86430	1035.02029	598.28716	128.00056	1040.67619	635.02697	321.50883	1009.30779	1114.07677	-0.53536	1001.56593	873.96935	458.50517	516.09955	904.20219	429.74724	528.09273	1008.17406	333.11161	496.19961	935.68192	158.53605	457.92381	916.46729	62.30807	489.69006	973.56834	189.54309	470.36884	1011.77589	477.22992	174.18457	963.90297	408.62041	166.72995	958.51570	439.84810	169.08619	1036.51283	138.60895	135.09423	1029.85657	72.80459	133.54102	1067.97897	154.30088	149.22616	1093.80714 
33	9.717	-496.60629	1126.60629	-393.38364	-502.91382	1161.02859	-645.29221	-222.24237	1201.43692	-691.67709	-216.90746	1185.93849	-353.02250	-216.53738	1555.95688	-538.11207	-319.33487	1656.84036	-507.90916	-543.69087	1713.79837	-399.41124	-399.41658	1759.83719	-537.14813	-374.83418	1736.75354	-383.29723	-355.11524	1516.58951	-755.20218	-266.04603	1207.57004	-847.69203	-267.69779	1179.28787	-804.07974	-353.91262	1208.00476	-837.38899	-328.05901	905.00107	-886.59744	-374.96693	905.24612	-876.48605	-382.10655	905.68169	-830.93124	-271.34308	1499.14658	-261.15005	-321.36501	1148.39233	-295.17019	-370.53013	1173.51624	-212.78900	-286.70502	1150.25528	-219.14028	-454.65580	888.55164	-246.62910	-500.49080	903.64563	-239.41061	-504.69551	918.55797	-289.88525	-416.15471	1007.77534	-772.19406	-266.69773	1002.71866	-307.28485	-578.47717	562.89349	-741.03737	-433.75282	592.98046	-756.69342	-500.35686	558.02086	-632.90344	-424.73938	517.59979	-516.72211	-299.31269	530.76000	-474.27319	-322.24022	539.08348	-616.71974	-313.59644	233.18409	-805.06577	-319.28534	227.06593	-726.00327	-240.86773	254.29090	-743.91693	-361.34930	170.40670	-587.92511	-279.89832	167.50629	-573.14507	-322.29156	185.43859	-651.19698	134.63318	1045.70480	803.90625	341.38397	1063.44521	1004.37317	144.79154	1150.74364	1097.21718	5.69623	1126.16905	959.98032	217.48814	1541.74301	888.20625	136.79720	1610.54840	981.43967	260.69494	1720.04486	790.48462	242.16654	1746.83868	972.28424	112.31705	1733.43140	887.06177	321.87077	1494.63348	1089.87633	297.18801	1174.55566	1206.18286	282.93966	1155.81764	1135.67856	378.26553	1185.27786	1175.44449	380.51949	935.25215	1235.87051	421.52225	932.55623	1194.66446	380.21561	932.05139	1158.75610	-23.25068	1491.72943	830.54642	28.32969	1167.29446	788.26645	-33.34790	1208.96866	723.16681	-52.20202	1151.24901	778.14919	69.60944	1003.71155	606.62312	97.17302	1035.99937	590.87364	132.75190	1041.88126	626.90758	332.50835	1007.61856	1102.87292	5.84951	1001.48529	869.17343	462.66800	515.33028	890.23170	435.38124	523.19252	995.81955	338.03154	491.49673	924.22478	161.13483	456.92642	912.45941	65.44181	489.86694	970.14755	192.77937	469.69097	1007.50244	496.69609	174.10004	929.77554	428.22395	163.99406	925.54581	461.07052	163.02145	1003.05824	138.71981	135.05812	1028.90991	73.24710	134.27347	1067.27455	155.01126	149.50211	1092.74254 
34	9.733	-506.15143	1126.76109	-385.83729	-518.60550	1162.23106	-637.34562	-239.42236	1202.36366	-692.12219	-225.23443	1187.04140	-352.74303	-229.97213	1556.36032	-535.75039	-332.76962	1657.24365	-505.54749	-555.38719	1713.83987	-393.96732	-413.62404	1759.66400	-534.02069	-386.29559	1737.52930	-380.66307	-372.88074	1517.79755	-752.53693	-282.72688	1209.76357	-847.10800	-283.60617	1181.07437	-802.33917	-370.51369	1209.19868	-835.45807	-340.52624	906.25664	-886.03363	-387.12437	905.41504	-874.48364	-392.80212	906.41045	-828.67386	-280.53041	1499.38156	-259.80259	-335.60486	1149.42085	-293.27255	-383.14026	1175.42732	-209.62065	-300.25946	1150.36476	-218.02811	-478.04543	894.11873	-244.74653	-523.10650	910.96817	-234.64199	-529.21497	927.11098	-284.69105	-436.33335	1009.71413	-766.97754	-272.84019	1003.10371	-307.22586	-603.61816	567.32658	-725.30991	-459.16248	590.98614	-749.86259	-519.47098	559.73125	-621.83350	-427.78080	516.73954	-515.12596	-301.73521	531.45432	-474.26846	-326.53214	539.36958	-616.71532	-365.47638	222.69957	-805.68420	-366.72024	216.71337	-726.18942	-287.62653	238.37460	-749.65485	-362.09232	170.16014	-587.52075	-280.25831	167.92509	-573.25169	-323.23769	185.60564	-650.74425	140.32105	1044.49554	797.70302	350.17113	1061.50833	994.90631	155.93456	1149.28162	1091.11870	14.18210	1125.64377	955.36362	225.53417	1540.33630	879.81071	146.61138	1609.52667	974.43871	266.97266	1718.68668	781.00052	252.31071	1745.41306	963.26340	120.60828	1732.04559	880.60402	333.24680	1493.71704	1079.88586	309.03482	1173.81523	1197.99187	295.56778	1154.75861	1126.89857	389.57321	1184.15764	1165.31700	391.81366	933.98956	1225.68634	432.47723	931.47499	1183.46321	390.19753	930.97046	1148.71956	-15.98931	1490.77896	825.75592	33.82691	1166.46690	782.76360	-28.58428	1208.18100	718.67516	-46.85205	1150.36041	773.70911	73.47490	1003.76717	599.96521	100.42773	1036.11008	584.21558	136.50702	1041.93787	619.77604	343.01544	1005.52444	1092.29019	12.40032	1001.29761	864.19685	465.89924	514.72710	877.41814	441.44394	517.01241	984.29260	341.66088	487.15664	911.75468	163.44988	455.63988	908.33229	68.57512	489.91169	966.66801	196.23577	468.85033	1002.85408	514.35890	175.40018	896.23314	446.39080	163.00550	891.99677	480.63377	158.36009	969.69505	139.06341	134.83110	1027.67738	73.67978	135.10346	1066.41899	155.76068	149.81986	1091.66893 
35	9.750	-515.89844	1125.87975	-378.40187	-533.71357	1162.42043	-629.23466	-256.58710	1202.74406	-692.63535	-233.42915	1187.27905	-352.46845	-243.48961	1556.30066	-533.43071	-346.28708	1657.18384	-503.22784	-567.05814	1713.85391	-388.08334	-427.74647	1759.23752	-530.87791	-397.96581	1737.86774	-377.85770	-390.90866	1518.52875	-749.71748	-300.08923	1211.64009	-846.83876	-300.06895	1182.48718	-800.60715	-387.54200	1209.96193	-833.22899	-353.75309	907.10815	-885.23781	-399.98386	905.19997	-872.18925	-404.38599	906.48277	-826.56021	-289.35156	1499.17435	-258.58513	-349.52290	1150.02632	-291.31826	-395.33543	1177.02194	-206.26307	-313.58515	1149.94431	-216.99192	-500.58887	899.57222	-242.12038	-545.01629	917.92168	-229.75271	-552.49146	935.27275	-279.22602	-456.16772	1010.54497	-762.18750	-278.35167	1003.43353	-306.75997	-625.76149	570.41611	-709.29703	-482.80148	588.53336	-742.11754	-535.85835	560.18608	-611.10199	-429.62112	515.19272	-514.92687	-304.24107	532.36752	-474.52351	-330.96474	539.74148	-616.94782	-418.56419	212.16770	-804.32068	-415.63568	206.30913	-724.55093	-336.15440	221.91046	-753.92441	-362.28203	169.94795	-587.28638	-280.56252	168.43340	-573.58780	-323.93402	185.88318	-650.06889	146.56687	1043.30185	790.89188	359.31755	1059.27979	984.97665	167.44635	1147.64709	1084.40926	22.85712	1124.87671	949.98375	233.68338	1538.77502	871.38420	156.33124	1608.16650	967.26784	273.28039	1716.90201	771.45370	262.53553	1744.05304	954.33205	129.18270	1730.63858	874.08272	344.30622	1492.37106	1069.86694	321.21696	1172.64893	1188.93639	307.74433	1153.68042	1117.30263	401.24786	1182.80022	1154.90196	404.16012	932.62787	1214.73351	443.83945	929.94598	1172.00172	401.16127	929.68132	1137.67906	-8.53006	1489.65164	820.89348	39.38367	1165.21431	777.46498	-23.84883	1207.12921	714.28627	-41.44162	1149.29482	769.52370	76.43745	1002.88300	594.12762	103.08831	1035.17723	578.05073	139.65917	1041.06522	613.06816	352.21703	1002.87079	1083.72299	19.15057	1000.92445	858.77853	468.79093	514.33308	865.08987	445.32074	511.83804	973.75046	345.38277	482.49397	900.87662	165.91782	454.30401	904.13452	71.86191	489.78481	963.37074	199.47115	467.85915	998.63396	529.94709	178.08664	864.12422	462.63065	163.62270	859.38141	497.59792	155.62557	936.92276	139.82028	134.59204	1026.36192	74.09073	135.59933	1065.82047	156.55883	150.01302	1090.79849 
